{"title":"The Weeknd - Pretty [Explicit] 1080p [Sbyky]","uid":11736512,"size":86458835,"categoryP":"video","categoryS":"music_videos","magnet":"?xt=urn:btih:69ef4fdfacf525feb4b28c9d832660f20f8dbab2&amp;dn=The+Weeknd+-+Pretty+%5BExplicit%5D+1080p+%5BSbyky%5D&amp;tr=udp%3A%2F%2Ftracker.openbittorrent.com%3A80&amp;tr=udp%3A%2F%2Fopen.demonii.com%3A1337&amp;tr=udp%3A%2F%2Ftracker.coppersurfer.tk%3A6969&amp;tr=udp%3A%2F%2Fexodus.desync.com%3A6969","seeders":8,"leechers":3,"uploader":"Sbyky","files":1,"time":1425587234,"description":"General\nComplete name                            : The Weeknd - Pretty [Explicit] 1080p [Sbyky].mp4\nFormat                                   : MPEG-4\nFormat profile                           : Base Media\nCodec ID                                 : isom\nFile size                                : 82.5 MiB\nDuration                                 : 5mn 30s\nOverall bit rate mode                    : Variable\nOverall bit rate                         : 2 093 Kbps\nEncoded date                             : UTC 2014-03-07 15:19:42\nTagged date                              : UTC 2014-03-07 15:19:42\n\nVideo\nID                                       : 1\nFormat                                   : AVC\nFormat/Info                              : Advanced Video Codec\nFormat profile                           : &lt;a class=&quot;__cf_email__&quot; href=&quot;/cdn-cgi/l/email-protection&quot; data-cfemail=&quot;99d1f0fef1d9d5adb7a9&quot;&gt;[email&amp;#160;protected]&lt;/a&gt;&lt;script cf-hash='f9e31' type=&quot;text/javascript&quot;&gt;\n/* &lt;![CDATA[ */!function(){try{var t=&quot;currentScript&quot;in document?document.currentScript:function(){for(var t=document.getElementsByTagName(&quot;script&quot;),e=t.length;e--;)if(t[e].getAttribute(&quot;cf-hash&quot;))return t[e]}();if(t&amp;&amp;t.previousSibling){var e,r,n,i,c=t.previousSibling,a=c.getAttribute(&quot;data-cfemail&quot;);if(a){for(e=&quot;&quot;,r=parseInt(a.substr(0,2),16),n=2;a.length-n;n+=2)i=parseInt(a.substr(n,2),16)^r,e+=String.fromCharCode(i);e=document.createTextNode(e),c.parentNode.replaceChild(e,c)}}}catch(u){}}();/* ]]&gt; */&lt;/script&gt;\nFormat settings, CABAC                   : Yes\nFormat settings, ReFrames                : 3 frames\nCodec ID                                 : avc1\nCodec ID/Info                            : Advanced Video Coding\nDuration                                 : 5mn 30s\nBit rate                                 : 1 965 Kbps\nWidth                                    : 1 920 pixels\nHeight                                   : 1 080 pixels\nDisplay aspect ratio                     : 16:9\nFrame rate mode                          : Variable\nFrame rate                               : 23.976 fps\nMinimum frame rate                       : 23.974 fps\nMaximum frame rate                       : 1 000.000 fps\nColor space                              : YUV\nChroma subsampling                       : 4:2:0\nBit depth                                : 8 bits\nScan type                                : Progressive\nBits/(Pixel*Frame)                       : 0.040\nStream size                              : 77.4 MiB (94%)\nEncoded date                             : UTC 2014-03-07 15:19:42\nTagged date                              : UTC 2014-03-07 15:19:42\n\nAudio\nID                                       : 2\nFormat                                   : AAC\nFormat/Info                              : Advanced Audio Codec\nFormat profile                           : LC\nCodec ID                                 : 40\nDuration                                 : 5mn 30s\nBit rate mode                            : Variable\nBit rate                                 : 126 Kbps\nChannel(s)                               : 2 channels\nChannel positions                        : Front: L R\nSampling rate                            : 44.1 KHz\nCompression mode                         : Lossy\nStream size                              : 4.95 MiB (6%)\nEncoded date                             : UTC 2014-03-07 15:18:08\nTagged date                              : UTC 2014-03-07 15:18:08\n\nShared By Sbyky","torrent":{"xt":"urn:btih:69ef4fdfacf525feb4b28c9d832660f20f8dbab2","amp;dn":"The+Weeknd+-+Pretty+%5BExplicit%5D+1080p+%5BSbyky%5D","amp;tr":["udp%3A%2F%2Ftracker.openbittorrent.com%3A80","udp%3A%2F%2Fopen.demonii.com%3A1337","udp%3A%2F%2Ftracker.coppersurfer.tk%3A6969","udp%3A%2F%2Fexodus.desync.com%3A6969"],"infoHash":"69ef4fdfacf525feb4b28c9d832660f20f8dbab2","infoHashBuffer":{"type":"Buffer","data":[105,239,79,223,172,245,37,254,180,178,140,157,131,38,96,242,15,141,186,178]},"announce":[],"urlList":[]}}